<svg width="95" height="17" viewBox="0 0 95 17" fill="none" xmlns="http://www.w3.org/2000/svg">
<path d="M8 0.5L10.116 5.58754L15.6085 6.02786L11.4238 9.61246L12.7023 14.9721L8 12.1L3.29772 14.9721L4.5762 9.61246L0.391548 6.02786L5.88397 5.58754L8 0.5Z" fill="white"/>
<path d="M27.6362 0.5L29.7523 5.58754L35.2447 6.02786L31.06 9.61246L32.3385 14.9721L27.6362 12.1L22.9339 14.9721L24.2124 9.61246L20.0278 6.02786L25.5202 5.58754L27.6362 0.5Z" fill="white"/>
<path d="M47.2729 0.5L49.389 5.58754L54.8814 6.02786L50.6968 9.61246L51.9752 14.9721L47.2729 12.1L42.5707 14.9721L43.8491 9.61246L39.6645 6.02786L45.1569 5.58754L47.2729 0.5Z" fill="white"/>
<path d="M66.9092 0.5L69.0252 5.58754L74.5176 6.02786L70.333 9.61246L71.6115 14.9721L66.9092 12.1L62.2069 14.9721L63.4854 9.61246L59.3007 6.02786L64.7932 5.58754L66.9092 0.5Z" fill="white"/>
<path d="M86.5454 0.5L88.6614 5.58754L94.1539 6.02786L89.9692 9.61246L91.2477 14.9721L86.5454 12.1L81.8431 14.9721L83.1216 9.61246L78.937 6.02786L84.4294 5.58754L86.5454 0.5Z" fill="white"/>
</svg>
